<svg id="Layer_1" data-name="Layer 1" xmlns="http://www.w3.org/2000/svg" viewBox="0 0 173.92 120.74"><defs><style>.cls-1{fill:#e82127;}</style></defs><title>Increase efficient</title><path class="cls-1" d="M200.18,114l-14.78-5.29,51.22-24.28c-6.3,18.32-12.39,36-18.69,54.32-2.58-5.64-4.91-10.74-7.31-16-3.77,2.78-7.31,5.53-11,8.08-18.47,12.87-38.74,21.73-60.28,27.57a236.78,236.78,0,0,1-65.44,8.41,39.15,39.15,0,0,1-4.06-.15,6.5,6.5,0,0,1-5.88-7c.26-3.51,3-5.88,6.59-6,10.43-.39,20.91-.26,31.25-1.43,34.91-3.93,67.43-14.75,96.08-36.16.57-.43,1.14-.89,1.7-1.34A6.1,6.1,0,0,0,200.18,114Z" transform="translate(-63.05 -76.55)"/><path class="cls-1" d="M236.18,98.51a15.13,15.13,0,0,1,.76,3.3q.06,45.51,0,91c0,2.94-1.37,4.35-4.23,4.41s-5.58,0-8.37,0c-3.44,0-4.76-1.34-4.76-4.89,0-12.61.41-25.24-.16-37.82-.39-8.79,2.26-16.57,5.06-24.51,3.53-10,6.9-20.08,10.35-30.11a10.88,10.88,0,0,1,.6-1.3Z" transform="translate(-63.05 -76.55)"/><path class="cls-1" d="M98.4,87l5.23-4.88a25.28,25.28,0,0,1,3,2.2,4.62,4.62,0,0,0,5.93.92c1.67-.8,2.42-1.53,2.67-3.39.69-5.25,1.43-5.75,6.62-5,.52.08,1,.77,1.38,1.25a1.53,1.53,0,0,1,.21.94c-.13,4.19,1.58,6.92,6.39,7.45l5.64-4.09,4.81,5.33a30.49,30.49,0,0,1-2,2.78c-1.81,2-2.47,3.95-.95,6.66.76,1.35,1.3,2.26,2.84,2.29a3.78,3.78,0,0,1,.47.06c4.88.69,5.71,1.9,4.64,7a2,2,0,0,1-1.16,1.19,6.57,6.57,0,0,1-2.8.52c-3.25-.34-4.21,1.94-5,4.39a2.71,2.71,0,0,0,.48,1.9c1.09,1.69,2.29,3.3,3.5,5l-5.14,5a27.91,27.91,0,0,1-3.06-2.23c-1.71-1.59-3.21-1.81-5.49-.76a4.41,4.41,0,0,0-2.92,4.1c-.14,1.45-.42,2.88-.65,4.44h-7c-.3-1.61-.62-3.19-.88-4.78a4.86,4.86,0,0,0-7.6-3.09c-1.34,1-2.71,2-4.21,3l-4.75-5.31c1-1.4,2.22-3,3.21-4.71a4.49,4.49,0,0,0,.21-2.54c-.54-4.28-3.86-4.52-7-4.79-1.65-.14-2.15-.85-2.08-2.47.25-6.22-1.18-4.72,5.11-5.88,1.55-.29,2.16-1,3-2.41,2-3.31,1-5.67-1.22-8.08A17.48,17.48,0,0,1,98.4,87ZM132,103.58a13,13,0,0,0-12.82-13.24c-7.54,0-12.89,5.43-12.89,13.2,0,7.34,5.67,13.31,12.81,13.14C127.1,116.5,131.76,111.82,132,103.58Z" transform="translate(-63.05 -76.55)"/><path class="cls-1" d="M209.68,128.05c.52,2.13,1.37,4,1.38,5.94.09,19.34.06,38.67.05,58,0,3.9-1.31,5.24-5.16,5.26-2.7,0-5.41.05-8.12,0s-4.19-1.53-4.2-4.25q-.06-26.33,0-52.66a2.74,2.74,0,0,1,.95-2C199.38,135,204.23,131.76,209.68,128.05Z" transform="translate(-63.05 -76.55)"/><path class="cls-1" d="M185,144.34c0,.84.1,1.64.1,2.43q0,22.46,0,44.92c0,4.5-1.06,5.56-5.52,5.57-2.47,0-4.95,0-7.42,0-3.05-.06-4.39-1.41-4.4-4.49q0-19.39,0-38.8a2.74,2.74,0,0,1,1-2.11c5.06-2.55,10.19-5,15.31-7.41A2.89,2.89,0,0,1,185,144.34Z" transform="translate(-63.05 -76.55)"/><path class="cls-1" d="M141.89,161.42l17.22-5.57V168.2c0,8.12,0,16.24,0,24.35,0,3.43-1.23,4.66-4.62,4.7-2.87,0-5.73.06-8.59,0-2.47-.06-4-1.32-4-3.59C141.85,182.93,141.89,172.22,141.89,161.42Z" transform="translate(-63.05 -76.55)"/><path class="cls-1" d="M70.69,106.19l4.13-2.32c.59.75,1.19,1.48,1.76,2.23,2.25,3,5.08,2.68,6.65-.67,1.33-2.83,1.33-2.83,5.66-.89.74,2-1.52,4.27.89,6.47s4.22,0,6.62-.18l2.24,3.81c-.63,2.41-4.15,2.16-3.93,5.38.25,3.39,3.49,2.59,5,4.65l-1.24,4.21c-7.66-.06-8,.45-6,7.9-.62.4-1.26.84-1.94,1.23s-1.39.74-2,1.07c-2.12-.94-2.09-4.41-5.54-3.82-3.18.54-2.59,3.55-4.43,5.13l-4.22-1.26c-.63-2.29,1.45-4.57-1.2-6.63s-4.28.49-6.62.38c-.29-.46-.63-1.1-1.06-1.66-1.36-1.77-1-3,.82-4.29,3-2.07,2.44-5.64-.84-7.21-.72-.34-1.42-.71-2.33-1.17l1.26-4.5c2.22-.91,4.44,1.49,6.58-1S70.86,108.71,70.69,106.19ZM81.3,130.94c4.8,0,9.31-4.18,9.29-8.62,0-5.6-4.14-10-9.35-9.94-4.67,0-9.1,4.18-9.13,8.53C72.07,126.58,76.06,130.93,81.3,130.94Z" transform="translate(-63.05 -76.55)"/><path class="cls-1" d="M116.18,167.12l17-3.45v4.18q0,12.06,0,24.12c0,4.07-1.15,5.27-5.05,5.29-2.79,0-5.57.05-8.35,0-2.37-.08-3.85-1.42-3.87-3.73-.06-8.53,0-17.05,0-25.58A3.62,3.62,0,0,1,116.18,167.12Z" transform="translate(-63.05 -76.55)"/><path class="cls-1" d="M89.87,170.1l17.35-1.67c0,.75.14,1.45.14,2.14q0,10.86,0,21.71c0,3.59-1.36,4.95-4.93,5-2.79,0-5.58.06-8.36,0-2.56-.07-4.13-1.47-4.16-4C89.81,185.57,89.87,177.94,89.87,170.1Z" transform="translate(-63.05 -76.55)"/><path class="cls-1" d="M64,168c5.59,3.62,11.51,1.72,17.22,2.5a13.61,13.61,0,0,1,.19,1.66c0,6.75,0,13.5,0,20.25,0,3.52-1.34,4.84-4.8,4.87-2.79,0-5.58.05-8.37,0S64,195.8,64,193.05C64,184.84,64,176.63,64,168Z" transform="translate(-63.05 -76.55)"/></svg>