<svg id="Layer_1" data-name="Layer 1" xmlns="http://www.w3.org/2000/svg" viewBox="0 0 158.2 158.18"><defs><style>.cls-1{fill:#e82127;}</style></defs><title>Precise</title><path class="cls-1" d="M160.87,213.47c0-2.07,0-4.05,0-6,0-.67.43-.63.84-.7a59.21,59.21,0,0,0,17.49-5.84c18.19-9.65,29.37-24.57,33.38-44.81.07-.35.15-.7.25-1.16h6.52C215.89,183.49,191.76,209.4,160.87,213.47Z" transform="translate(-71.89 -65.99)"/><path class="cls-1" d="M141,206.87v6.55C111.09,209.64,86.19,184.27,82.6,155c2.05,0,4.08,0,6.12,0,.19,0,.5.45.55.73a60.94,60.94,0,0,0,10.34,25,62,62,0,0,0,40.23,25.88Z" transform="translate(-71.89 -65.99)"/><path class="cls-1" d="M219.4,135.09h-6.53c-.41-1.84-.75-3.69-1.23-5.49a62.6,62.6,0,0,0-49.89-46.18c-.72-.13-.91-.38-.9-1.07.05-1.88,0-3.75,0-5.64C188.66,80,215.08,103.45,219.4,135.09Z" transform="translate(-71.89 -65.99)"/><path class="cls-1" d="M82.56,135.16c4.16-30.88,29.81-54.88,58.51-58.46,0,2,0,4.08,0,6.12,0,.19-.45.5-.73.55a59.08,59.08,0,0,0-15.26,4.76q-29.28,14.12-35.71,46c-.15.77-.37,1.06-1.17,1C86.33,135.12,84.49,135.16,82.56,135.16Z" transform="translate(-71.89 -65.99)"/><path class="cls-1" d="M230.09,141.84v6.46H170.81v-6.46Z" transform="translate(-71.89 -65.99)"/><path class="cls-1" d="M154.2,224.17h-6.41V164.88h6.41Z" transform="translate(-71.89 -65.99)"/><path class="cls-1" d="M154.21,125.22h-6.45V66h6.45Z" transform="translate(-71.89 -65.99)"/><path class="cls-1" d="M71.89,148.28v-6.42h59.22v6.42Z" transform="translate(-71.89 -65.99)"/><path class="cls-1" d="M160.7,145.09a9.71,9.71,0,0,1-9.75,9.85,9.9,9.9,0,1,1,.06-19.79A9.75,9.75,0,0,1,160.7,145.09Z" transform="translate(-71.89 -65.99)"/><path class="cls-1" d="M160.87,179.79c0-2.12,0-4.22,0-6.33,0-.25.44-.59.75-.71a29.82,29.82,0,0,0,16.12-15,2,2,0,0,0,.25-.53c.34-2.07,1.65-2.48,3.53-2.27a35.71,35.71,0,0,0,4.14,0C185,164.15,170.28,178.92,160.87,179.79Z" transform="translate(-71.89 -65.99)"/><path class="cls-1" d="M116.28,155c2.11,0,4.21,0,6.31,0,.27,0,.61.51.75.85A29.8,29.8,0,0,0,132,167.76a28.37,28.37,0,0,0,8.31,4.91,1.07,1.07,0,0,1,.84,1.21c0,2,0,4,0,5.94C131.05,178.3,116.78,164,116.28,155Z" transform="translate(-71.89 -65.99)"/><path class="cls-1" d="M185.78,135.15c-2.19,0-4.3,0-6.41,0-.22,0-.54-.33-.64-.57a29.8,29.8,0,0,0-17.2-17.21c-.27-.11-.63-.46-.63-.71-.05-2.07,0-4.15,0-6.42a36,36,0,0,1,24.91,24.94Z" transform="translate(-71.89 -65.99)"/><path class="cls-1" d="M116.22,135.16c2.86-11.53,13.24-22,24.77-24.85a6.66,6.66,0,0,1,.09.75c0,1.75,0,3.49,0,5.24a1,1,0,0,1-.81,1.13,29.42,29.42,0,0,0-16.94,16.9,1.09,1.09,0,0,1-1.21.84C120.2,135.12,118.26,135.16,116.22,135.16Z" transform="translate(-71.89 -65.99)"/></svg>