<svg id="Layer_1" data-name="Layer 1" xmlns="http://www.w3.org/2000/svg" viewBox="0 0 219.09 111.46"><defs><style>.cls-1{fill:#e82127;}</style></defs><title>Untitled-2</title><path class="cls-1" d="M135.4,191.88c-11,9.92-12.13,9.86-22.18.06-9.66-9.41-19.57-18.56-29-28.21-3.26-3.34-5.42-7.86-9-13.11H36.73V101.9c22.8,0,45.51-.22,68.21.13,6.35.1,11.63-1.14,16.15-5.82a28.17,28.17,0,0,1,21.52-8.34c12.65.49,25.37-.46,38,.43a33.14,33.14,0,0,1,16.73,6c3.79,2.66,7,4.31,11.49,4.25,15.31-.18,30.61-.07,46.43-.07.19,2.36.34,4.34.57,7.19H206.5c-.74,7.38-1.39,13.94-2.09,21h35.16c.12,2.58.21,4.64.32,7H192.82s1.9-6.66,3.5-9.54c6.92-12.41-.33-27.73-14.09-28.39-12.3-.58-24.64-.12-36.3-.12-.71,5.65-1.37,10.89-2.21,17.59-.86-1.27-.67-.68-.41-.65,16.86,1.91,24.25,17.12,35.11,27.35a216.42,216.42,0,0,1,17.78,19.14c3.34,4,6.57,4.92,11.06,2.72,15.05-7.38,30.92-8.52,47.62-6.63.09,1.8.18,3.56.29,5.74a23.94,23.94,0,0,1-4.72.62c-13.84-1-27.25.51-40,6.6-2.62,1.26-4.89,1.5-5.32,5.74-.58,5.6-6.42,6.69-10.75,2.22-7.48-7.74-14.63-15.8-22.12-23.52-1.3-1.34-3.56-1.65-5.38-2.44.59,1.9.68,4.27,1.85,5.62,5.57,6.41,11.42,12.55,17.18,18.77,3,3.19,4.7,6.82,1,10.32s-7,1.46-9.94-1.77c-5.23-5.78-10.36-11.67-15.89-17.13-1.75-1.74-4.61-2.27-7-3.34,1,2.25,1.65,4.88,3.17,6.7,3.83,4.57,8.05,8.79,12.14,13.12,2.89,3.06,4,6.54.91,9.87s-6.48,2.18-9.37-.89c-4.23-4.5-8.31-9.19-12.78-13.43-1.66-1.57-4.24-2.08-6.4-3.08,1,2.29,1.69,4.82,3.09,6.81,1.85,2.62,4.77,4.51,6.24,7.28,1.1,2.08,1.72,6.38.64,7.32-1.73,1.51-5.31,2-7.61,1.21C141,196.57,138.43,194,135.4,191.88Zm-13.07-86.74c-3.48,2.87-7.17,5.87-10.81,8.93s-7.41,6.37-11.17,9.61c9.65,9,16.37,6.94,30.84-8.57Zm-20.77,65.7c4.28-4.83,8.45-9,11.91-13.78,1-1.4.06-4.39,0-6.64-2,.23-4.64-.31-5.81.82-4.34,4.19-8.19,8.93-12.32,13.57ZM113,181.75c3.66-4.1,7.14-7.41,9.83-11.31,1.08-1.57.4-4.44.52-6.72-2.19.21-5.06-.42-6.42.79-3.63,3.23-6.61,7.25-10.16,11.32ZM89.25,161c4-4.62,7-7.49,9.31-10.81,2.13-3-.44-8.11-3.08-6.73a29.57,29.57,0,0,0-9.74,8.91C85,153.38,87.57,157,89.25,161Zm28.07,26.76c3.62,1.47,7.29,4,8.21,3.14,3.23-2.92,5.66-6.88,8-10.7.31-.49-1.27-3-2.42-3.54a4.54,4.54,0,0,0-4.17.56C124,180,121.42,183.17,117.32,187.73Zm23.28-85.37c-2.92-1.75-4.65-3.6-6.27-3.5-1.31.08-3.69,2.85-3.44,3.82.43,1.71,2.46,4,3.94,4.1S137.9,104.56,140.6,102.36Z" transform="translate(-36.73 -87.85)"/><path class="cls-1" d="M190.93,112.19c0,6.63-4.36,11.87-10,12s-10.09-4.94-10.16-11.58,4.09-11.75,9.87-11.9C186.25,100.51,190.91,105.75,190.93,112.19Zm-4.82.21c-2.58-2.09-4.19-4.41-5.46-4.17s-3.06,2.72-3.41,4.53c-.18,1,2.19,3.62,3.43,3.64C182.11,116.42,183.57,114.39,186.11,112.4Z" transform="translate(-36.73 -87.85)"/></svg>