<svg id="Layer_1" data-name="Layer 1" xmlns="http://www.w3.org/2000/svg" viewBox="0 0 148.46 148.47"><defs><style>.cls-1{fill:#e82127;}</style></defs><title>Save time</title><path class="cls-1" d="M79.58,140.94c0,34.21,26.94,63.85,60.23,66.4,36.06,2.76,67-21.07,72.52-55.9a65.55,65.55,0,0,0-8.08-43.83c-.38-.68-.83-1.31-1.16-2-1-2.1-.67-4,1.41-5.14a3.36,3.36,0,0,1,4.88,1.31,84.82,84.82,0,0,1,4.72,8.75c20.86,46.15-10.1,99.41-60.52,104.2-39.81,3.78-76-24.88-80.78-63.9-5-41,22.84-77.81,63.21-83.47a72.94,72.94,0,0,1,47.91,9.52l.86.5c2.15,1.3,3.42,3.06,2,5.49s-3.43,2-5.76,1c-6.68-2.86-13.24-6.42-20.24-8C119.24,66.28,79.52,98.33,79.58,140.94Z" transform="translate(-72.23 -66.59)"/><path class="cls-1" d="M148.87,88.08v6.83H144.1c-.12-2.12-.23-4.26-.37-6.78-12.6.63-23.25,5.24-32.88,13.59l6,4.51c-2.31,1.46-3.59,2.28-5.17,3.29l-4.39-4.19A52.56,52.56,0,0,0,93.65,138.2l6.85.32v4.76H93.65c.61,12.85,5.27,23.52,13.59,33.14l5.24-5c1,1.18,2,2.33,3.11,3.66l-4.7,4.95a52,52,0,0,0,33,13.59v-6.74h4.9c.1,2.18.2,4.25.32,6.75,12.66-.62,23.35-5.28,32.85-13.56L177,174.86l3.63-3.13,4.89,4.66c8.27-9.46,12.91-20.11,13.6-32.81l-6.84-.39v-4.65l6.83-.32a51.88,51.88,0,0,0-5.54-21.41c-.59-1.23-1.21-2.85-.86-4s2-2.6,2.93-2.48a6.13,6.13,0,0,1,4.1,2.5,56.55,56.55,0,0,1,6.9,24c2.16,32.62-21.37,60.21-54.66,64.15-30.46,3.61-60.11-18.84-65.07-50-3.8-23.89,4.08-43.94,23.46-58.43,19.16-14.32,40.24-15.85,62.11-6.16.71.31,1.38.71,2.07,1,2.38,1.18,3.34,3.09,2.08,5.44s-3.24,2.35-5.44,1.2A51.54,51.54,0,0,0,148.87,88.08Z" transform="translate(-72.23 -66.59)"/><path class="cls-1" d="M146.45,135.82c6-6.06,11.6-11.82,17.28-17.51q19.56-19.62,39.16-39.19c.55-.54,1.09-1.46,1.69-1.52,1.59-.14,3.8-.5,4.67.35s.64,3.07.49,4.65c-.07.69-1.1,1.31-1.73,1.94L150.55,142c-3.44,3.44-4.81,3.44-8.22.05-6.81-6.79-13.59-13.62-20.43-20.38-1.92-1.9-3.19-3.86-1.15-6.31,1.58-1.91,4-1.45,6.52,1.1C133.51,122.74,139.73,129,146.45,135.82Z" transform="translate(-72.23 -66.59)"/></svg>