<svg id="Layer_1" data-name="Layer 1" xmlns="http://www.w3.org/2000/svg" viewBox="0 0 117.93 129.34"><defs><style>.cls-1{fill:#e82127;}</style></defs><title>Save money</title><path class="cls-1" d="M156.68,206.46c-12.26-.09-24.54-.15-36.46-3.59-14.45-4.16-21.16-13.45-22.37-28.49-1.72-21.52,15.19-44.25,31.77-52.24a4.42,4.42,0,0,1,3.49.16c14.52,7.88,28.72,7.79,42.75-1.24a4.25,4.25,0,0,1,3.49-.33c18.23,8.77,31.26,22,35.47,42.44a41.89,41.89,0,0,1-1.59,22.31c-3.29,9.49-10.58,14.58-19.8,17.31-9.92,3-20.17,3.34-30.42,3.66C160.9,206.52,158.79,206.46,156.68,206.46ZM152.43,141c-2.92,1.75-5.72,2.84-7.78,4.75a11.41,11.41,0,0,0,3.92,19.44c3.67,1.32,7.53,2.09,11.22,3.36a6.42,6.42,0,0,1,4.64,5.76c.22,2.74-.41,5.21-2.78,6.92-6,4.35-15.1.82-16.6-6.44-.1-.47-.27-.92-.44-1.48-.92,0-1.72,0-2.51,0s-1.48.17-2.22.26c.9,8,3.35,10.78,12.39,14.36l.28,4.47h4.82l.36-4.51c1.18-.31,2.26-.54,3.3-.89,3.54-1.22,6.47-3.22,8.14-6.7,3.17-6.55.71-13.42-6-16.16-3.7-1.5-7.67-2.31-11.45-3.62s-5.26-3.49-5-6.91a6.45,6.45,0,0,1,5.42-6.32c4.77-1,8.92.28,10.35,4,1.27,3.3,3.21,3.48,6.2,2.77-1-4.27-2.53-8.53-6.73-10.12-3.72-1.41-4.85-3.46-4.5-7,0-.13-.22-.29-.38-.49h-4.59Z" transform="translate(-97.73 -77.15)"/><path class="cls-1" d="M130.43,103.42c5.38,3.14,11.13,3.62,16.43-1.61.42-.42.94-.75,1.38-1.16,1.92-1.82,3.76-1.8,5.31.39,4.59,6.52,11.51,4.95,16.19.83a117.76,117.76,0,0,1,12.38-9.54c-.86,1.4-1.67,2.85-2.61,4.2a32.34,32.34,0,0,0-6,17.4,4,4,0,0,1-1.62,2.79c-11.32,7.17-23,7.5-34.8,1.29a4.94,4.94,0,0,1-1.9-2.41C133.52,111.49,132,107.32,130.43,103.42Z" transform="translate(-97.73 -77.15)"/><path class="cls-1" d="M124.1,87.7c2.21-.45,4.39-1.07,6.62-1.32s4.41,0,6.62-.16a8.89,8.89,0,0,0,7.16-3.68c4.9-6.48,9.88-7.26,15.69-1.57,4,3.9,7.73,4,12.49,2.71,2.55-.7,5.35-.49,8.71-.74-.66,1.33-.77,1.88-1.1,2.16-5.38,4.65-10.71,9.38-16.26,13.82-1.9,1.52-4,1.06-5.76-1-4.82-5.62-9-6-14.34-.88-4,3.85-7.69,4.12-12.47.13-2.87-2.4-5.19-5.48-7.75-8.25Z" transform="translate(-97.73 -77.15)"/><path class="cls-1" d="M187.38,114.7c3.87,1.94,8.14,4,12.32,6.21a4.8,4.8,0,0,1,2.34,2.25c.39,1.13,0,2.52,0,3.8-1.12-.1-2.48.18-3.34-.35-6-3.65-11.84-7.44-17.7-11.26-.65-.42-1.5-1.26-1.46-1.86a3.12,3.12,0,0,1,1.42-2.21c7.19-3.7,14.52-4.19,21.95-.63,1.89.9,3.48,2.1,2.38,4.36s-2.84,1.63-4.65.78C195.45,113.36,191.72,113.17,187.38,114.7Z" transform="translate(-97.73 -77.15)"/></svg>